<?xml version="1.0" encoding="UTF-8"?>
<svg xmlns="http://www.w3.org/2000/svg" width="140" height="110" viewBox="0 0 140 110">

<g>
<rect x="10.0" y="30.0" width="110.0" height="70.0" rx="4" fill="#C8763A" stroke="#2B1D14" stroke-width="5"/>
<rect x="20.0" y="40.0" width="50.0" height="30.0" rx="2" fill="#1A2430" stroke="#2B1D14" stroke-width="3"/>
<path d="M 109.00 55.00 L 105.26 62.36 L 98.67 68.95 L 90.28 68.97 L 83.65 64.22 L 80.20 54.61 L 84.57 47.29 L 91.12 41.01 L 99.64 40.91 L 106.33 46.77 Z" fill="#E8EEF2" stroke="#2B1D14" stroke-width="3" stroke-linejoin="round" stroke-linecap="round"/>
<path d="M 99.00 55.00 L 97.04 58.54 L 92.15 58.42 L 91.68 56.20 L 92.52 50.82 L 97.00 51.54 Z" fill="#2B1D14" stroke="#2B1D14" stroke-width="2" stroke-linejoin="round" stroke-linecap="round"/>
<path d="M 25.00 78.00 L 40.29 77.77 L 55.00 78.00" fill="none" stroke="#2B1D14" stroke-width="2" stroke-linecap="round"/>
<path d="M 25.00 84.00 L 40.85 84.66 L 55.00 84.00" fill="none" stroke="#2B1D14" stroke-width="2" stroke-linecap="round"/>
<path d="M 25.00 90.00 L 40.24 90.38 L 55.00 90.00" fill="none" stroke="#2B1D14" stroke-width="2" stroke-linecap="round"/>
<path d="M 100.00 30.00 L 109.88 18.08 L 120.00 8.00" fill="none" stroke="#2B1D14" stroke-width="3" stroke-linecap="round"/>
<path d="M 126.00 6.00 L 124.73 9.15 L 119.67 10.23 L 117.23 5.00 L 119.37 2.22 L 124.00 2.54 Z" fill="#B23A2E" stroke="#2B1D14" stroke-width="2" stroke-linejoin="round" stroke-linecap="round"/>
</g>
</svg>
