<?xml version="1.0" encoding="UTF-8"?>
<svg xmlns="http://www.w3.org/2000/svg" width="145" height="135" viewBox="0 0 145 135">

<g>
<path d="M 115.00 120.00 L 105.86 125.01 L 83.08 128.82 L 55.66 130.27 L 34.53 125.13 L 24.26 120.98 L 34.59 113.89 L 57.10 109.80 L 84.46 111.24 L 106.41 114.12 Z" fill="#000000" stroke="none" stroke-width="0" stroke-linejoin="round" stroke-linecap="round" opacity="0.15"/>
<path d="M 45.00 70.00 L 96.31 68.78 L 101.19 110.80 L 40.00 112.00 Z" fill="#D8E8F0" stroke="#2B1D14" stroke-width="4" stroke-linejoin="round" stroke-linecap="round"/>
<path d="M 52.00 85.00 L 88.23 84.46 L 88.78 108.85 L 50.00 110.00 Z" fill="#C4A35A" stroke="#2B1D14" stroke-width="2" stroke-linejoin="round" stroke-linecap="round"/>
<path d="M 108.00 55.00 L 102.19 64.99 L 87.90 72.60 L 70.93 76.06 L 51.71 71.40 L 36.44 64.26 L 32.44 54.56 L 35.91 45.56 L 50.05 38.74 L 69.13 33.81 L 89.35 38.72 L 102.91 45.00 Z" fill="#C4A35A" stroke="#2B1D14" stroke-width="5" stroke-linejoin="round" stroke-linecap="round"/>
<path d="M 40.00 48.00 L 99.61 48.06 L 99.69 70.88 L 40.00 70.00 Z" fill="#C4A35A" stroke="#2B1D14" stroke-width="4" stroke-linejoin="round" stroke-linecap="round"/>
<path d="M 108 55 Q 130 45 125 70" fill="none" stroke="#C4A35A" stroke-width="6" stroke-linecap="round"/>
<path d="M 55 40 Q 50 20 60 10" fill="none" stroke="#FFFFFF" stroke-width="3" opacity="0.55" stroke-linecap="round"/>
<path d="M 75 38 Q 78 15 70 5" fill="none" stroke="#FFFFFF" stroke-width="3" opacity="0.5" stroke-linecap="round"/>
<path d="M 90 42 Q 100 22 95 8" fill="none" stroke="#FFFFFF" stroke-width="2.5" opacity="0.45" stroke-linecap="round"/>
</g>
</svg>
