<?xml version="1.0" encoding="UTF-8"?>
<svg xmlns="http://www.w3.org/2000/svg" width="180" height="280" viewBox="0 0 180 280">

<g>
<path d="M 144.00 272.00 L 135.36 276.91 L 113.66 282.23 L 85.49 280.97 L 63.96 278.36 L 57.14 271.41 L 63.57 267.25 L 87.15 261.95 L 113.73 261.37 L 135.60 266.12 Z" fill="#000000" stroke="none" stroke-width="0" stroke-linejoin="round" stroke-linecap="round" opacity="0.16"/>
<path d="M 56.00 196.00 L 85.72 192.87 L 88.08 262.84 L 52.00 264.00 Z" fill="#3A2A1A" stroke="#2B1D14" stroke-width="5" stroke-linejoin="round" stroke-linecap="round"/>
<path d="M 100.00 194.00 L 130.23 196.19 L 133.02 262.77 L 102.00 262.00 Z" fill="#3A2A1A" stroke="#2B1D14" stroke-width="5" stroke-linejoin="round" stroke-linecap="round"/>
<path d="M 46.00 254.00 L 90.94 252.23 L 92.80 267.95 L 44.00 268.00 Z" fill="#5A4030" stroke="#2B1D14" stroke-width="3" stroke-linejoin="round" stroke-linecap="round"/>
<path d="M 98.00 252.00 L 147.13 254.73 L 151.19 267.87 L 96.00 268.00 Z" fill="#5A4030" stroke="#2B1D14" stroke-width="3" stroke-linejoin="round" stroke-linecap="round"/>
<path d="M 42.00 152.00 L 147.65 146.89 L 155.09 211.14 L 38.00 214.00 Z" fill="#F5F0E6" stroke="#2B1D14" stroke-width="5" stroke-linejoin="round" stroke-linecap="round"/>
<path d="M 48.00 88.00 L 142.76 82.62 L 141.40 160.89 L 50.00 166.00 Z" fill="#3F6B3A" stroke="#2B1D14" stroke-width="6" stroke-linejoin="round" stroke-linecap="round"/>
<path d="M 20.00 100.00 L 52.17 106.30 L 49.23 166.93 L 18.00 162.00 Z" fill="#E9C98B" stroke="#2B1D14" stroke-width="5" stroke-linejoin="round" stroke-linecap="round"/>
<path d="M 36.00 164.00 L 17.58 161.91 L 17.09 177.99 L 26.66 183.03 L 38.00 176.00 Z" fill="#E9C98B" stroke="#2B1D14" stroke-width="3" stroke-linejoin="round" stroke-linecap="round"/>
<path d="M 16.00 110.00 L 16.74 184.54 L 16.00 258.00" fill="none" stroke="#8B5A2B" stroke-width="6" stroke-linecap="round"/>
<path d="M 26.00 104.00 L 22.85 108.07 L 16.59 110.15 L 9.23 107.84 L 6.05 103.86 L 7.75 98.87 L 15.47 97.51 L 23.07 99.76 Z" fill="#8B5A2B" stroke="#2B1D14" stroke-width="3" stroke-linejoin="round" stroke-linecap="round"/>
<path d="M 132.00 100.00 L 165.09 112.85 L 157.72 158.48 L 128.00 148.00 Z" fill="#E9C98B" stroke="#2B1D14" stroke-width="5" stroke-linejoin="round" stroke-linecap="round"/>
<path d="M 148.00 150.00 L 167.00 148.21 L 167.50 163.36 L 159.40 167.43 L 146.00 162.00 Z" fill="#E9C98B" stroke="#2B1D14" stroke-width="3" stroke-linejoin="round" stroke-linecap="round"/>
<path d="M 131.00 54.00 L 128.37 70.50 L 116.40 86.41 L 102.14 94.19 L 86.92 92.31 L 72.06 85.84 L 61.53 70.55 L 58.24 53.51 L 62.36 36.76 L 71.60 22.27 L 86.11 15.05 L 103.96 14.85 L 116.63 23.19 L 127.43 36.64 Z" fill="#E9C98B" stroke="#2B1D14" stroke-width="6" stroke-linejoin="round" stroke-linecap="round"/>
<path d="M 113.00 36.00 L 106.76 42.78 L 95.54 46.23 L 82.04 42.12 L 77.18 35.72 L 82.69 29.56 L 96.11 25.30 L 107.73 28.93 Z" fill="#F2D9B0" stroke="none" stroke-width="0" stroke-linejoin="round" stroke-linecap="round" opacity="0.55"/>
<path d="M 61.00 46.00 L 66.20 24.84 L 83.87 32.74 L 65.00 56.00 Z" fill="#6A5A4A" stroke="#2B1D14" stroke-width="3" stroke-linejoin="round" stroke-linecap="round"/>
<path d="M 105.00 32.00 L 122.05 26.33 L 128.55 44.74 L 125.00 56.00 Z" fill="#6A5A4A" stroke="#2B1D14" stroke-width="3" stroke-linejoin="round" stroke-linecap="round"/>
<path d="M 88.00 52.00 L 85.63 57.04 L 83.65 58.22 L 78.93 57.24 L 77.48 52.26 L 79.65 48.83 L 81.83 47.16 L 86.54 47.76 Z" fill="#FFF8F0" stroke="#2B1D14" stroke-width="2" stroke-linejoin="round" stroke-linecap="round"/>
<path d="M 112.00 52.00 L 110.08 56.04 L 107.27 59.12 L 104.61 55.80 L 103.19 52.74 L 102.38 48.03 L 107.16 46.61 L 110.54 47.76 Z" fill="#FFF8F0" stroke="#2B1D14" stroke-width="2" stroke-linejoin="round" stroke-linecap="round"/>
<path d="M 85.50 53.00 L 83.33 56.75 L 82.34 54.98 L 80.57 53.51 L 81.66 50.63 L 84.25 50.40 Z" fill="#2B1D14" stroke="#2B1D14" stroke-width="1" stroke-linejoin="round" stroke-linecap="round"/>
<path d="M 109.50 53.00 L 107.13 56.52 L 106.34 54.68 L 103.76 53.27 L 105.34 50.16 L 108.25 50.40 Z" fill="#2B1D14" stroke="#2B1D14" stroke-width="1" stroke-linejoin="round" stroke-linecap="round"/>
<path d="M 98.00 60.00 L 96.10 62.69 L 94.17 61.28 L 92.89 60.58 L 93.52 57.21 L 96.50 57.83 Z" fill="#D4A878" stroke="#2B1D14" stroke-width="1" stroke-linejoin="round" stroke-linecap="round"/>
<path d="M 75.00 40.00 L 81.47 40.50 L 89.00 42.00" fill="none" stroke="#2B1D14" stroke-width="3" stroke-linecap="round"/>
<path d="M 101.00 42.00 L 108.34 41.44 L 115.00 40.00" fill="none" stroke="#2B1D14" stroke-width="3" stroke-linecap="round"/>
<path d="M 87.00 70.00 L 94.48 69.19 L 103.00 70.00" fill="none" stroke="#8A6A50" stroke-width="2" stroke-linecap="round"/>
<g>
<path d="M 93.00 70.00 L 88.83 65.52 L 74.18 70.13 L 77.06 77.83 L 89.39 76.85 L 95.00 74.00 Z" fill="#6A5A4A" stroke="#2B1D14" stroke-width="2" stroke-linejoin="round" stroke-linecap="round"/>
<path d="M 97.00 70.00 L 102.29 67.33 L 114.68 71.10 L 113.29 77.20 L 101.38 76.25 L 95.00 74.00 Z" fill="#6A5A4A" stroke="#2B1D14" stroke-width="2" stroke-linejoin="round" stroke-linecap="round"/>
</g>
</g>
</svg>
