<?xml version="1.0" encoding="UTF-8"?>
<svg xmlns="http://www.w3.org/2000/svg" width="160" height="140" viewBox="0 0 160 140">

<g>
<path d="M 30.00 100.00 L 97.51 99.02 L 92.42 116.80 L 36.00 118.00 Z" fill="#1A2430" stroke="#2B1D14" stroke-width="5" stroke-linejoin="round" stroke-linecap="round"/>
<path d="M 34.00 102.00 L 45.23 103.29 L 44.95 116.57 L 34.00 116.00 Z" fill="#7A9BB8" stroke="#2B1D14" stroke-width="3" stroke-linejoin="round" stroke-linecap="round"/>
<path d="M 82.00 102.00 L 93.90 101.65 L 92.99 117.03 L 82.00 116.00 Z" fill="#7A9BB8" stroke="#2B1D14" stroke-width="3" stroke-linejoin="round" stroke-linecap="round"/>
<path d="M 28.00 40.00 L 100.20 39.80 L 96.22 99.18 L 32.00 100.00 Z" fill="#7A9BB8" stroke="#2B1D14" stroke-width="6" stroke-linejoin="round" stroke-linecap="round"/>
<rect x="48.0" y="78.0" width="32.0" height="16.0" rx="3" fill="#E8EEF2" stroke="#2B1D14" stroke-width="3"/>
<path d="M 64.00 40.00 L 63.95 29.31 L 64.00 18.00" fill="none" stroke="#7A9BB8" stroke-width="4" stroke-linecap="round"/>
<path d="M 71.00 14.00 L 69.08 18.56 L 66.60 21.50 L 61.08 20.01 L 57.49 17.45 L 57.56 13.11 L 58.41 9.20 L 61.34 7.18 L 66.97 7.60 L 69.66 9.89 Z" fill="#B23A2E" stroke="#2B1D14" stroke-width="3" stroke-linejoin="round" stroke-linecap="round"/>
<path d="M 100.00 70.00 L 126.90 66.57 L 130.43 79.23 L 100.00 82.00 Z" fill="#E8EEF2" stroke="#2B1D14" stroke-width="4" stroke-linejoin="round" stroke-linecap="round"/>
<path d="M 128.00 60.00 L 149.30 68.63 L 128.00 84.00 Z" fill="#7A9BB8" stroke="#2B1D14" stroke-width="4" stroke-linejoin="round" stroke-linecap="round"/>
</g>
</svg>
