<?xml version="1.0" encoding="UTF-8"?>
<svg xmlns="http://www.w3.org/2000/svg" width="250" height="290" viewBox="0 0 250 290">

<g>
<path d="M 70.00 200.00 L 96.73 199.17 L 94.59 264.00 L 66.00 265.00 Z" fill="#3A2A1A" stroke="#2B1D14" stroke-width="5" stroke-linejoin="round" stroke-linecap="round"/>
<path d="M 108.00 200.00 L 134.79 199.51 L 138.61 264.39 L 112.00 265.00 Z" fill="#3A2A1A" stroke="#2B1D14" stroke-width="5" stroke-linejoin="round" stroke-linecap="round"/>
<path d="M 55.00 155.00 L 150.74 150.41 L 154.75 214.15 L 50.00 220.00 Z" fill="#E9C98B" stroke="#2B1D14" stroke-width="6" stroke-linejoin="round" stroke-linecap="round"/>
<path d="M 58.00 95.00 L 146.85 92.96 L 145.28 164.20 L 60.00 168.00 Z" fill="#3E6FB0" stroke="#2B1D14" stroke-width="6" stroke-linejoin="round" stroke-linecap="round"/>
<path d="M 30.00 105.00 L 59.71 108.84 L 55.23 173.97 L 28.00 170.00 Z" fill="#E9C98B" stroke="#2B1D14" stroke-width="5" stroke-linejoin="round" stroke-linecap="round"/>
<path d="M 140.00 108.00 L 184.82 85.63 L 190.10 129.99 L 148.00 155.00 Z" fill="#E9C98B" stroke="#2B1D14" stroke-width="5" stroke-linejoin="round" stroke-linecap="round"/>
<path d="M 215.00 78.00 L 211.14 85.03 L 205.57 91.81 L 195.95 94.13 L 184.24 90.41 L 177.74 85.86 L 174.26 78.58 L 177.14 70.93 L 185.35 64.54 L 194.82 63.44 L 205.13 64.54 L 212.32 70.50 Z" fill="#C4A35A" stroke="#2B1D14" stroke-width="4" stroke-linejoin="round" stroke-linecap="round"/>
<path d="M 195 78 Q 225 65 215 40" fill="none" stroke="#C4A35A" stroke-width="6" stroke-linecap="round"/>
<path d="M 200.00 130.00 L 225.02 130.47 L 220.99 164.22 L 205.00 165.00 Z" fill="#D8E8F0" stroke="#2B1D14" stroke-width="3" stroke-linejoin="round" stroke-linecap="round"/>
<path d="M 140.00 62.00 L 135.71 80.90 L 124.63 95.55 L 109.87 103.10 L 94.33 102.36 L 78.74 95.96 L 68.08 79.85 L 63.23 63.19 L 67.28 44.64 L 78.44 28.33 L 93.29 20.76 L 110.73 20.39 L 125.78 29.29 L 136.24 43.78 Z" fill="#E9C98B" stroke="#2B1D14" stroke-width="6" stroke-linejoin="round" stroke-linecap="round"/>
<path d="M 68.00 78.00 L 102.16 90.67 L 137.30 77.40 L 102.00 84.00 Z" fill="#2B1D14" stroke="#2B1D14" stroke-width="2" stroke-linejoin="round" stroke-linecap="round"/>
<path d="M 93.00 60.00 L 91.26 64.68 L 88.54 65.77 L 83.67 63.09 L 82.50 58.90 L 83.59 55.85 L 87.96 54.84 L 91.54 55.76 Z" fill="#2B1D14" stroke="#2B1D14" stroke-width="2" stroke-linejoin="round" stroke-linecap="round"/>
<path d="M 121.00 60.00 L 119.69 64.82 L 114.85 66.92 L 112.78 64.61 L 111.83 59.62 L 113.18 56.18 L 115.12 54.50 L 119.54 55.76 Z" fill="#2B1D14" stroke="#2B1D14" stroke-width="2" stroke-linejoin="round" stroke-linecap="round"/>
<path d="M 68.00 35.00 L 135.71 33.35 L 128.57 46.77 L 75.00 50.00 Z" fill="#2B1D14" stroke="#2B1D14" stroke-width="3" stroke-linejoin="round" stroke-linecap="round"/>
<path d="M 78.00 48.00 L 85.80 48.44 L 95.00 50.00" fill="none" stroke="#2B1D14" stroke-width="3" stroke-linecap="round"/>
<path d="M 110.00 50.00 L 119.03 48.71 L 128.00 48.00" fill="none" stroke="#2B1D14" stroke-width="3" stroke-linecap="round"/>
</g>
</svg>
